HIERARCHY
ROOT Hips
{
	OFFSET 54.321800 -17.333614 94.068199
	CHANNELS 6 Xposition Yposition Zposition Xrotation Yrotation Zrotation
	JOINT spine
	{
		OFFSET 0.000000 -0.448574 7.800591
		CHANNELS 3 Xrotation Yrotation Zrotation
		JOINT spine1
		{
			OFFSET 0.000000 -0.000002 10.136398
			CHANNELS 3 Xrotation Yrotation Zrotation
			JOINT spine2
			{
				OFFSET 0.000000 0.000000 9.712509
				CHANNELS 3 Xrotation Yrotation Zrotation
				JOINT Neck
				{
					OFFSET 0.000000 -1.188875 24.936096
					CHANNELS 3 Xrotation Yrotation Zrotation
					JOINT Head
					{
						OFFSET 0.000000 0.000000 7.533844
						CHANNELS 3 Xrotation Yrotation Zrotation
						End Site
						{
							OFFSET 0.000000 6.014017 18.236099
						}
					}
				}
				JOINT RightShoulder
				{
					OFFSET -4.089649 0.569454 10.488800
					CHANNELS 3 Xrotation Yrotation Zrotation
					JOINT RightArm
					{
						OFFSET 0.000000 -0.000002 13.757004
						CHANNELS 3 Xrotation Yrotation Zrotation
						JOINT RightArmRoll
						{
							OFFSET 0.000000 -0.000002 6.944778
							CHANNELS 3 Xrotation Yrotation Zrotation
							JOINT RightForeArm
							{
								OFFSET 0.000000 -0.000004 20.227707
								CHANNELS 3 Xrotation Yrotation Zrotation
								JOINT RightForeArmRoll
								{
									OFFSET 0.000000 0.000000 7.793121
									CHANNELS 3 Xrotation Yrotation Zrotation
									JOINT RightHand
									{
										OFFSET 0.000000 -0.000004 15.639099
										CHANNELS 3 Xrotation Yrotation Zrotation
										End Site
										{
											OFFSET 0.000000 0.000000 0.100006
										}
									}
								}
							}
						}
					}
				}
				JOINT LeftShoulder
				{
					OFFSET 4.089649 0.569454 10.488800
					CHANNELS 3 Xrotation Yrotation Zrotation
					JOINT LeftArm
					{
						OFFSET 0.000000 -0.000002 13.757004
						CHANNELS 3 Xrotation Yrotation Zrotation
						JOINT LeftArmRoll
						{
							OFFSET 0.000000 -0.000002 6.944778
							CHANNELS 3 Xrotation Yrotation Zrotation
							JOINT LeftForeArm
							{
								OFFSET 0.000000 -0.000004 20.227707
								CHANNELS 3 Xrotation Yrotation Zrotation
								JOINT LeftForeArmRoll
								{
									OFFSET 0.000000 0.000000 7.793121
									CHANNELS 3 Xrotation Yrotation Zrotation
									JOINT LeftHand
									{
										OFFSET 0.000000 -0.000004 15.639099
										CHANNELS 3 Xrotation Yrotation Zrotation
										End Site
										{
											OFFSET 0.000000 0.000000 0.100006
										}
									}
								}
							}
						}
					}
				}
			}
		}
	}
	JOINT RightUpLeg
	{
		OFFSET -6.914162 1.063580 -1.267883
		CHANNELS 3 Xrotation Yrotation Zrotation
		JOINT RightUpLegRoll
		{
			OFFSET 0.000000 -0.000002 18.337799
			CHANNELS 3 Xrotation Yrotation Zrotation
			JOINT RightLeg
			{
				OFFSET 0.000000 0.000002 -22.708504
				CHANNELS 3 Xrotation Yrotation Zrotation
				JOINT RightLegRoll
				{
					OFFSET 0.000000 -0.000002 22.782799
					CHANNELS 3 Xrotation Yrotation Zrotation
					JOINT RightFoot
					{
						OFFSET 0.000000 -0.000004 18.962898
						CHANNELS 3 Xrotation Yrotation Zrotation
						JOINT RightToeBase
						{
							OFFSET 0.000000 -0.000002 15.852005
							CHANNELS 3 Xrotation Yrotation Zrotation
							End Site
							{
								OFFSET 0.006718 0.884890 7.677017
							}
						}
					}
				}
			}
		}
	}
	JOINT LeftUpLeg
	{
		OFFSET 6.914162 1.063580 -1.267883
		CHANNELS 3 Xrotation Yrotation Zrotation
		JOINT LeftUpLegRoll
		{
			OFFSET 0.000000 -0.000002 18.337898
			CHANNELS 3 Xrotation Yrotation Zrotation
			JOINT LeftLeg
			{
				OFFSET 0.000000 -0.000004 22.708405
				CHANNELS 3 Xrotation Yrotation Zrotation
				JOINT LeftLegRoll
				{
					OFFSET 0.000000 -0.000004 22.993408
					CHANNELS 3 Xrotation Yrotation Zrotation
					JOINT LeftFoot
					{
						OFFSET 0.000000 -0.000004 18.752197
						CHANNELS 3 Xrotation Yrotation Zrotation
						JOINT LeftToeBase
						{
							OFFSET 0.000000 -0.000002 15.852005
							CHANNELS 3 Xrotation Yrotation Zrotation
							End Site
							{
								OFFSET -0.030113 0.884892 7.677002
							}
						}
					}
				}
			}
		}
	}
}
MOTION
Frames: 6
Frame Time: 0.041667
54.608803 -16.977615 94.007111 -5.495199 0.150647 -2.320097 -0.331941 0.127782 0.289566 3.328460 0.282690 0.566237 4.973514 0.289356 0.563102 15.485111 2.458841 -0.854712 -15.625840 -6.746781 -1.137127 -20.250886 -78.129304 -23.763907 -79.480289 -103.112402 -64.057120 0.000005 0.000009 0.000006 14.455078 -10.293338 0.247825 0.000003 0.000009 -3.000001 -5.000190 -7.998781 0.000162 1.743059 67.148819 -0.944593 -10.970899 105.256173 -5.932306 0.000000 0.000000 0.000000 17.458471 2.366626 0.696516 -0.000002 -0.000005 3.000002 -5.000191 7.999818 -0.000051 -0.355324 -174.112109 0.778138 -179.999991 0.000005 -0.906006 168.121077 0.779930 -0.902941 -0.000004 -0.000007 -0.023953 69.956901 5.257875 6.397278 25.458581 -7.355625 0.002539 1.101345 178.583260 6.148416 -0.000005 -0.000004 -1.387481 -12.385827 4.114562 0.738992 -0.000005 0.000001 -0.241856 73.075210 -7.221240 -0.890769 25.456962 7.355615 -0.000000 
54.602200 -16.975014 94.007317 -5.498288 0.150659 -2.315838 -0.330334 0.128370 0.288766 3.332601 0.283110 0.564970 4.977653 0.289786 0.561809 15.459667 2.457206 -0.855249 -15.619318 -6.750512 -1.137942 -20.263781 -78.133027 -23.777608 -79.596846 -103.078497 -64.023010 0.000004 0.000010 0.000008 14.316633 -10.225597 0.224709 0.000004 0.000009 -3.000001 -5.000189 -7.998781 0.000160 1.740257 67.147542 -0.941600 -10.882484 105.255899 -6.136305 -0.000000 -0.000000 0.000001 17.268146 2.291901 0.706015 -0.000001 -0.000005 3.000001 -5.000191 7.999818 -0.000051 -0.353059 -174.113106 0.778302 -179.999991 0.000005 -0.906006 168.109766 0.780874 -0.904590 -0.000004 -0.000007 -0.023887 69.967269 5.259978 6.392158 25.458579 -7.355626 0.002538 1.106470 178.580268 6.155703 -0.000005 -0.000004 -1.387560 -12.390735 4.101198 0.739225 -0.000005 0.000001 -0.242249 73.081064 -7.215125 -0.906278 25.456957 7.355615 -0.000000 
54.609200 -16.978714 94.006897 -5.501070 0.150643 -2.311532 -0.328773 0.128971 0.287955 3.336681 0.283542 0.563677 4.981743 0.290231 0.560488 15.433822 2.455400 -0.855707 -15.612586 -6.754242 -1.138668 -20.277199 -78.137009 -23.791871 -79.713970 -103.045555 -63.987712 0.000004 0.000009 0.000006 14.175178 -10.156970 0.201548 0.000000 0.000009 -3.000001 -5.000192 -7.998780 0.000161 1.737385 67.146265 -0.938540 -10.796949 105.255797 -6.337725 -0.000000 -0.000000 0.000001 17.076670 2.216750 0.714927 -0.000001 -0.000005 3.000000 -5.000190 7.999818 -0.000051 -0.351163 -174.115114 0.778379 -179.999991 0.000005 -0.906006 168.098674 0.781832 -0.905228 -0.000004 -0.000007 -0.023845 69.977351 5.262187 6.386772 25.458576 -7.355626 0.002539 1.111224 178.576266 6.162778 -0.000005 -0.000004 -1.387620 -12.395633 4.087747 0.739485 -0.000005 0.000001 -0.242631 73.087163 -7.208815 -0.922245 25.456960 7.355615 -0.000000 
54.599201 -16.972916 94.002502 -5.503628 0.150608 -2.307199 -0.327255 0.129582 0.287136 3.340721 0.283981 0.562365 4.985784 0.290687 0.559149 15.407870 2.453470 -0.856113 -15.605655 -6.757988 -1.139328 -20.291164 -78.141271 -23.806711 -79.830910 -103.013418 -63.950986 0.000003 0.000010 0.000010 14.031754 -10.087701 0.178500 0.000004 0.000009 -2.999999 -5.000186 -7.998781 0.000161 1.734445 67.144803 -0.935418 -10.713472 105.255845 -6.537458 -0.000000 -0.000000 0.000001 16.884540 2.141291 0.723266 -0.000001 -0.000005 3.000000 -5.000192 7.999819 -0.000050 -0.349529 -174.117108 0.778388 -179.999991 0.000004 -0.906006 168.087663 0.782775 -0.905869 -0.000004 -0.000007 -0.023825 69.987439 5.264388 6.381484 25.458579 -7.355625 0.002538 1.115724 178.572277 6.169727 -0.000005 -0.000004 -1.387660 -12.400637 4.074238 0.739767 -0.000004 0.000001 -0.243005 73.093426 -7.202370 -0.938579 25.456962 7.355615 -0.000000 
54.603600 -16.978113 94.003189 -5.506071 0.150563 -2.302837 -0.325749 0.130197 0.286311 3.344741 0.284424 0.561043 4.989794 0.291149 0.557798 15.381723 2.451463 -0.856485 -15.598728 -6.761733 -1.139964 -20.305348 -78.145622 -23.821781 -79.947972 -102.981761 -63.913727 0.000005 0.000009 0.000006 13.887284 -10.018131 0.155702 0.000002 0.000009 -3.000001 -5.000187 -7.998780 0.000160 1.731479 67.143335 -0.932268 -10.630509 105.256951 -6.736741 0.000000 0.000000 0.000000 16.691966 2.065654 0.731067 -0.000000 -0.000005 3.000001 -5.000192 7.999818 -0.000050 -0.348035 -174.118106 0.778353 -179.999991 0.000005 -0.906006 168.076667 0.783719 -0.907521 -0.000004 -0.000007 -0.023813 69.997425 5.266612 6.376005 25.458577 -7.355625 0.002538 1.120070 178.569272 6.176610 -0.000005 -0.000004 -1.387701 -12.405638 4.060687 0.740059 -0.000005 0.000001 -0.243375 73.099861 -7.195826 -0.954991 25.456962 7.355615 -0.000000 
54.601700 -16.993816 94.007896 -5.508477 0.150515 -2.298465 -0.324250 0.130814 0.285486 3.348751 0.284868 0.559718 4.993804 0.291613 0.556445 15.355575 2.449446 -0.856854 -15.591700 -6.765480 -1.140581 -20.319509 -78.149979 -23.836836 -80.065199 -102.950171 -63.876394 0.000004 0.000010 0.000006 13.742497 -9.948428 0.133200 0.000005 0.000009 -3.000002 -5.000190 -7.998780 0.000161 1.728505 67.141866 -0.929112 -10.547901 105.258106 -6.935781 -0.000000 0.000000 0.000001 16.499338 1.989945 0.738354 0.000002 -0.000004 3.000000 -5.000192 7.999818 -0.000050 -0.346580 -174.120114 0.778317 -179.999991 0.000005 -0.906006 168.065656 0.784663 -0.908161 -0.000005 -0.000007 -0.023806 70.007410 5.268833 6.370622 25.458577 -7.355625 0.002538 1.124392 178.565283 6.183453 -0.000005 -0.000004 -1.387730 -12.410739 4.047128 0.740355 -0.000004 0.000001 -0.243743 73.106199 -7.189291 -0.971608 25.456964 7.355614 -0.000000 
